<svg width="377" height="58" viewBox="0 0 377 58" fill="none" xmlns="http://www.w3.org/2000/svg">
<path d="M136.42 35H133.72V22.94H136.42V35ZM140.353 35H137.653V25.982H140.155V28.718H140.299C140.515 27.206 141.415 25.802 143.683 25.802C145.771 25.802 146.833 27.08 147.031 28.754H147.193C147.409 27.224 148.327 25.802 150.649 25.802C152.971 25.802 154.105 27.332 154.105 29.384V35H151.405V30.284C151.405 28.79 150.883 28.232 149.335 28.232C147.697 28.232 147.229 28.88 147.229 30.446V35H144.529V30.284C144.529 28.79 144.007 28.232 142.459 28.232C140.821 28.232 140.353 28.88 140.353 30.446V35ZM157.997 38.06H155.297V25.982H157.799V28.448H157.979C158.303 26.72 159.455 25.802 161.579 25.802C164.352 25.802 165.899 27.638 165.899 30.5C165.899 33.362 164.387 35.18 161.669 35.18C159.581 35.18 158.429 34.154 158.123 32.57H157.997V38.06ZM157.997 30.626C157.997 32.174 158.933 32.714 160.625 32.714C162.353 32.714 163.163 32.138 163.163 30.5C163.163 28.844 162.353 28.286 160.643 28.286C158.897 28.286 157.997 28.88 157.997 30.482V30.626ZM169.542 35H166.842V25.982H169.344V28.376H169.506C169.758 26.918 170.712 25.802 172.53 25.802C174.546 25.802 175.374 27.188 175.374 28.952V30.446H172.674V29.51C172.674 28.52 172.278 28.088 171.18 28.088C169.974 28.088 169.542 28.646 169.542 29.78V35ZM180.96 35.18C177.954 35.18 175.902 33.704 175.902 30.5C175.902 27.62 177.936 25.802 180.906 25.802C183.858 25.802 185.82 27.35 185.82 30.176C185.82 30.5 185.784 30.734 185.748 31.04H178.404C178.476 32.426 179.124 33.02 180.87 33.02C182.472 33.02 183.03 32.606 183.03 31.832V31.652H185.73V31.85C185.73 33.812 183.822 35.18 180.96 35.18ZM180.852 27.908C179.25 27.908 178.566 28.448 178.44 29.618H183.228C183.156 28.43 182.436 27.908 180.852 27.908ZM191.339 35.18C188.297 35.18 186.623 33.992 186.623 31.904V31.85H189.323V32.012C189.323 32.822 189.827 33.038 191.357 33.038C192.797 33.038 193.139 32.804 193.139 32.264C193.139 31.76 192.869 31.616 191.807 31.472L189.269 31.166C187.469 30.968 186.461 30.158 186.461 28.646C186.461 27.062 187.811 25.802 190.907 25.802C193.859 25.802 195.533 26.918 195.533 29.114V29.168H192.833V29.06C192.833 28.322 192.473 27.944 190.817 27.944C189.467 27.944 189.125 28.178 189.125 28.754C189.125 29.222 189.377 29.42 190.565 29.564L192.491 29.798C194.903 30.068 195.803 30.878 195.803 32.372C195.803 34.064 194.129 35.18 191.339 35.18ZM203.066 35H200.834C198.728 35 197.45 34.01 197.45 31.742V28.214H196.028V25.982H197.45V24.236H200.15V25.982H203.066V28.214H200.15V31.436C200.15 32.336 200.492 32.57 201.446 32.57H203.066V35ZM211.967 35.18C208.313 35.18 206.261 33.74 206.261 30.932V30.824H208.961V31.148C208.961 32.264 209.519 32.714 211.967 32.714C214.127 32.714 214.631 32.39 214.631 31.58C214.631 30.842 214.217 30.572 212.975 30.356L209.591 29.87C207.431 29.528 206.153 28.448 206.153 26.486C206.153 24.668 207.629 22.76 211.679 22.76C215.387 22.76 217.115 24.47 217.115 27.008V27.116H214.397V26.864C214.397 25.712 213.803 25.226 211.409 25.226C209.465 25.226 208.871 25.604 208.871 26.378C208.871 27.08 209.267 27.332 210.275 27.512L213.659 28.052C216.359 28.484 217.331 29.798 217.331 31.454C217.331 33.416 215.801 35.18 211.967 35.18ZM224.604 35H222.372C220.266 35 218.988 34.01 218.988 31.742V28.214H217.566V25.982H218.988V24.236H221.688V25.982H224.604V28.214H221.688V31.436C221.688 32.336 222.03 32.57 222.984 32.57H224.604V35ZM230.242 35.18C227.164 35.18 225.094 33.344 225.094 30.5C225.094 27.62 227.164 25.802 230.242 25.802C233.32 25.802 235.39 27.62 235.39 30.5C235.39 33.344 233.32 35.18 230.242 35.18ZM230.242 32.786C232.06 32.786 232.708 32.084 232.708 30.5C232.708 28.916 232.06 28.178 230.242 28.178C228.406 28.178 227.776 28.916 227.776 30.5C227.776 32.084 228.406 32.786 230.242 32.786ZM241.118 35.18C238.022 35.18 236.042 33.344 236.042 30.5C236.042 27.62 238.022 25.802 241.118 25.802C244.016 25.802 245.996 27.35 245.996 29.69V29.942H243.314V29.798C243.314 28.646 242.468 28.232 241.064 28.232C239.462 28.232 238.724 28.826 238.724 30.5C238.724 32.156 239.462 32.75 241.064 32.75C242.468 32.75 243.314 32.336 243.314 31.184V31.04H245.996V31.292C245.996 33.614 244.016 35.18 241.118 35.18ZM249.678 35H246.978V22.94H249.678V29.33H251.73L254.034 25.982H257.238L253.944 30.338L257.184 35H253.998L251.748 31.742H249.678V35ZM263.011 35H260.311V22.94H263.965L266.791 28.88L267.925 31.706H268.123L269.221 28.88L271.957 22.94H275.629V35H272.929V28.88L273.019 26.99H272.821L272.119 28.88L269.599 34.28H266.323L263.803 28.88L263.101 26.99H262.903L263.011 28.88V35ZM279.638 35.18C277.694 35.18 276.524 34.28 276.524 32.768C276.524 31.436 277.514 30.608 279.44 30.41L283.31 30.014V29.672C283.31 28.502 282.788 28.178 281.348 28.178C279.98 28.178 279.422 28.538 279.422 29.564V29.636H276.704V29.582C276.704 27.35 278.576 25.802 281.546 25.802C284.552 25.802 285.974 27.35 285.974 29.708V35H283.454V32.93H283.31C282.896 34.334 281.636 35.18 279.638 35.18ZM279.242 32.588C279.242 33.074 279.62 33.272 280.412 33.272C282.248 33.272 283.238 32.84 283.31 31.562L280.178 31.922C279.53 31.976 279.242 32.156 279.242 32.588ZM289.862 35H287.162V25.982H289.664V28.754H289.826C290.06 27.242 291.14 25.802 293.498 25.802C295.964 25.802 297.134 27.386 297.134 29.384V35H294.434V30.284C294.434 28.844 293.84 28.232 292.184 28.232C290.474 28.232 289.862 28.916 289.862 30.446V35ZM301.092 35.18C299.148 35.18 297.978 34.28 297.978 32.768C297.978 31.436 298.968 30.608 300.894 30.41L304.764 30.014V29.672C304.764 28.502 304.242 28.178 302.802 28.178C301.434 28.178 300.876 28.538 300.876 29.564V29.636H298.158V29.582C298.158 27.35 300.03 25.802 303 25.802C306.006 25.802 307.428 27.35 307.428 29.708V35H304.908V32.93H304.764C304.35 34.334 303.09 35.18 301.092 35.18ZM300.696 32.588C300.696 33.074 301.074 33.272 301.866 33.272C303.702 33.272 304.692 32.84 304.764 31.562L301.632 31.922C300.984 31.976 300.696 32.156 300.696 32.588ZM312.577 34.082C309.895 34.082 308.347 32.48 308.347 29.942C308.347 27.422 309.985 25.802 312.685 25.802C314.521 25.802 315.835 26.594 316.123 28.16H316.267V25.982H318.787V33.686C318.787 36.836 316.879 38.24 313.657 38.24C310.741 38.24 308.905 36.944 308.905 34.676H311.605C311.605 35.684 312.001 35.99 313.837 35.99C315.565 35.99 316.087 35.63 316.087 33.866V31.832H315.943C315.655 33.164 314.593 34.082 312.577 34.082ZM311.065 29.942C311.065 31.274 311.821 31.76 313.513 31.76C315.241 31.76 316.087 31.274 316.087 30.032V29.834C316.087 28.61 315.223 28.142 313.549 28.142C311.821 28.142 311.065 28.61 311.065 29.942ZM324.826 35.18C321.82 35.18 319.768 33.704 319.768 30.5C319.768 27.62 321.802 25.802 324.772 25.802C327.724 25.802 329.686 27.35 329.686 30.176C329.686 30.5 329.65 30.734 329.614 31.04H322.27C322.342 32.426 322.99 33.02 324.736 33.02C326.338 33.02 326.896 32.606 326.896 31.832V31.652H329.596V31.85C329.596 33.812 327.688 35.18 324.826 35.18ZM324.718 27.908C323.116 27.908 322.432 28.448 322.306 29.618H327.094C327.022 28.43 326.302 27.908 324.718 27.908ZM333.351 35H330.651V25.982H333.153V28.718H333.297C333.513 27.206 334.413 25.802 336.681 25.802C338.769 25.802 339.831 27.08 340.029 28.754H340.191C340.407 27.224 341.325 25.802 343.647 25.802C345.969 25.802 347.103 27.332 347.103 29.384V35H344.403V30.284C344.403 28.79 343.881 28.232 342.333 28.232C340.695 28.232 340.227 28.88 340.227 30.446V35H337.527V30.284C337.527 28.79 337.005 28.232 335.457 28.232C333.819 28.232 333.351 28.88 333.351 30.446V35ZM353.083 35.18C350.077 35.18 348.025 33.704 348.025 30.5C348.025 27.62 350.059 25.802 353.029 25.802C355.981 25.802 357.943 27.35 357.943 30.176C357.943 30.5 357.907 30.734 357.871 31.04H350.527C350.599 32.426 351.247 33.02 352.993 33.02C354.595 33.02 355.153 32.606 355.153 31.832V31.652H357.853V31.85C357.853 33.812 355.945 35.18 353.083 35.18ZM352.975 27.908C351.373 27.908 350.689 28.448 350.563 29.618H355.351C355.279 28.43 354.559 27.908 352.975 27.908ZM361.608 35H358.908V25.982H361.41V28.754H361.572C361.806 27.242 362.886 25.802 365.244 25.802C367.71 25.802 368.88 27.386 368.88 29.384V35H366.18V30.284C366.18 28.844 365.586 28.232 363.93 28.232C362.22 28.232 361.608 28.916 361.608 30.446V35ZM376.42 35H374.188C372.082 35 370.804 34.01 370.804 31.742V28.214H369.382V25.982H370.804V24.236H373.504V25.982H376.42V28.214H373.504V31.436C373.504 32.336 373.846 32.57 374.8 32.57H376.42V35Z" fill="#111111"/>
<path d="M13.976 30H7.96V8.56H16.12L20.056 17.456L22.168 22.992H22.584L24.6 17.456L28.344 8.56H36.504V30H30.488V21.136L30.712 17.552H30.296L29.08 21.136L25.88 28.72H18.584L15.384 21.136L14.168 17.552H13.752L13.976 21.136V30ZM44.1248 12.4H38.1088V8.56H44.1248V12.4ZM44.1248 30H38.1088V13.872H44.1248V30ZM57.7903 30H53.5663C49.5343 30 47.1343 28.048 47.1343 23.856V18.8H44.7663V13.872H47.1343V11.088H53.1503V13.872H57.7903V18.8H53.1503V22.992C53.1503 24.272 53.5343 24.592 54.9103 24.592H57.7903V30ZM70.9703 30H66.7463C62.7143 30 60.3143 28.048 60.3143 23.856V18.8H57.9463V13.872H60.3143V11.088H66.3303V13.872H70.9703V18.8H66.3303V22.992C66.3303 24.272 66.7143 24.592 68.0903 24.592H70.9703V30ZM81.0783 30.32C75.6063 30.32 71.7663 27.984 71.7663 21.936C71.7663 16.688 75.5743 13.552 80.9503 13.552C86.5183 13.552 90.0703 16.336 90.0703 21.52C90.0703 22.064 90.0383 22.48 89.9743 23.056H77.3343C77.4303 25.008 78.2943 25.552 80.8543 25.552C83.2863 25.552 83.9263 25.136 83.9263 24.176V23.824H89.9423V24.208C89.9423 27.792 86.5183 30.32 81.0783 30.32ZM80.8223 18.16C78.6143 18.16 77.6863 18.64 77.4303 20.016H84.2463C84.0223 18.64 83.0623 18.16 80.8223 18.16Z" fill="#111111"/>
<path d="M5.824 51H0.76L7.696 34.92H14.152L21.112 51H15.928L14.704 48.024H7.072L5.824 51ZM9.712 41.712L8.776 43.968H13.048L12.112 41.712L11.056 39H10.744L9.712 41.712ZM25.867 51H21.355V38.904H25.579V42.576H25.819C26.083 40.56 27.403 38.664 30.643 38.664C33.907 38.664 35.443 40.632 35.443 43.248V51H30.931V44.904C30.931 43.224 30.307 42.696 28.339 42.696C26.347 42.696 25.867 43.2 25.867 44.76V51ZM40.4489 51.24C37.7129 51.24 36.1769 49.992 36.1769 47.928C36.1769 46.224 37.3529 45 40.0889 44.736L45.0089 44.256V44.016C45.0089 42.792 44.4809 42.6 42.8729 42.6C41.3849 42.6 40.9289 42.888 40.9289 43.896V43.992H36.4169V43.944C36.4169 40.728 39.1049 38.664 43.2089 38.664C47.4329 38.664 49.4729 40.728 49.4729 44.112V51H45.2489V48.456H45.0089C44.5529 50.16 43.0649 51.24 40.4489 51.24ZM40.7129 47.64C40.7129 48.024 41.0969 48.096 41.7929 48.096C43.9769 48.096 44.8649 47.832 44.9849 46.752L41.2889 47.184C40.8809 47.232 40.7129 47.376 40.7129 47.64ZM55.0823 51H50.5703V34.92H55.0823V51ZM58.9474 55.08H56.7634V51H60.2674C60.6274 51 60.9154 50.952 61.1074 50.856L55.3234 38.904H60.4594L62.5474 43.656L63.4114 46.44H63.7234L64.5154 43.608L66.3154 38.904H71.3554L65.6194 51.48C64.3234 54.336 62.4754 55.08 58.9474 55.08ZM80.6539 51H77.4859C74.4619 51 72.6619 49.536 72.6619 46.392V42.6H70.8859V38.904H72.6619V36.816H77.1739V38.904H80.6539V42.6H77.1739V45.744C77.1739 46.704 77.4619 46.944 78.4939 46.944H80.6539V51ZM86.0029 37.8H81.4909V34.92H86.0029V37.8ZM86.0029 51H81.4909V38.904H86.0029V51ZM93.9961 51.24C89.7001 51.24 86.9641 48.864 86.9641 44.952C86.9641 41.016 89.7001 38.664 93.9961 38.664C98.1241 38.664 100.764 40.776 100.764 44.016V44.4H96.2761V44.208C96.2761 42.96 95.3641 42.696 93.9001 42.696C92.2441 42.696 91.4521 43.056 91.4521 44.952C91.4521 46.824 92.2441 47.184 93.9001 47.184C95.3641 47.184 96.2761 46.944 96.2761 45.696V45.48H100.764V45.888C100.764 49.104 98.1241 51.24 93.9961 51.24ZM108.234 51.24C103.962 51.24 101.682 49.584 101.682 46.8V46.704H106.194V46.944C106.194 47.616 106.626 47.688 108.258 47.688C109.818 47.688 110.058 47.52 110.058 47.112C110.058 46.728 109.866 46.632 108.738 46.512L105.234 46.128C102.738 45.864 101.394 44.688 101.394 42.648C101.394 40.512 103.098 38.664 107.634 38.664C111.834 38.664 114.066 40.176 114.066 43.152V43.248H109.554V43.104C109.554 42.48 109.314 42.192 107.49 42.192C106.026 42.192 105.834 42.384 105.834 42.84C105.834 43.176 106.026 43.344 107.442 43.488L109.842 43.752C113.37 44.136 114.498 45.312 114.498 47.352C114.498 49.608 112.242 51.24 108.234 51.24Z" fill="#688698"/>
</svg>
